<svg id="Capa_1" enable-background="new 0 0 512 512" height="512" viewBox="0 0 512 512" width="512" xmlns="http://www.w3.org/2000/svg"><g><path d="m416.744 123.523v359.329c0 16.099-13.049 29.149-29.138 29.149h-321.846c-16.1 0-29.149-13.049-29.149-29.149v-453.703c.001-16.1 13.05-29.149 29.149-29.149h227.037c2.347 0 4.653.507 6.762 1.468 1.768.796 3.381 1.913 4.787 3.299l1.293 1.282 106.296 105.872c1.406 1.396 2.523 3.03 3.329 4.798.974 2.12 1.48 4.436 1.48 6.804z" fill="#ffe8d2"/><path d="m415.266 116.719h-73.042c-23.565 0-42.663-19.098-42.663-42.663v-72.588l6.08 4.581 106.296 105.872c1.406 1.396 2.522 3.03 3.329 4.798z" fill="#f7d4ad"/><g><path d="m96.029 274.778c-1.985 0-3.97-.757-5.484-2.272l-8.339-8.34c-3.029-3.028-3.028-7.939 0-10.967 3.029-3.027 7.939-3.028 10.968.001l2.889 2.889 17.419-17.203c3.048-3.01 7.958-2.978 10.967.068 3.01 3.048 2.979 7.958-.069 10.967l-22.903 22.619c-1.509 1.493-3.479 2.238-5.448 2.238z" fill="#95d5a4"/></g><path d="m114.279 155.868 10.137-10.136c3.029-3.03 3.029-7.939 0-10.968-3.028-3.027-7.938-3.027-10.967 0l-10.137 10.137-10.137-10.137c-3.028-3.027-7.939-3.027-10.967 0-3.029 3.029-3.029 7.939 0 10.968l10.137 10.136-10.137 10.137c-3.029 3.029-3.029 7.939 0 10.968 1.514 1.514 3.499 2.271 5.484 2.271s3.969-.757 5.484-2.271l10.137-10.137 10.137 10.137c1.514 1.514 3.499 2.271 5.484 2.271s3.969-.757 5.484-2.271c3.029-3.029 3.029-7.939 0-10.968z" fill="#ff6b61"/><g><path d="m299.555 147.623h-144.773c-4.283 0-7.755-3.472-7.755-7.755s3.472-7.755 7.755-7.755h144.773c4.283 0 7.755 3.472 7.755 7.755s-3.472 7.755-7.755 7.755z" fill="#e2a876"/></g><g><g><path d="m447.197 512h-114.516c-17.692 0-31.01-16.11-27.68-33.481l4.498-23.503c1.293-6.742 3.909-13.029 7.621-18.55 5.863-8.799 14.466-15.676 24.744-19.408l48.402-17.557 48.03 17.423c10.33 3.753 18.964 10.681 24.837 19.553v.01c3.764 5.656 6.39 12.088 7.631 18.995l4.177 23.369c3.09 17.277-10.187 33.149-27.744 33.149z" fill="#c2ddff"/><path d="m416.751 409.176-.01.009c-15.507 13.537-38.631 13.533-54.134-.009v-36.29h54.144z" fill="#ecbd83"/><path d="m432.679 308.874v30.757c0 24.119-19.738 44.431-43.852 43.966-23.368-.451-42.166-19.533-42.166-43.004v-31.719c0-23.753 19.256-36.149 43.009-36.149 23.753 0 43.009 12.396 43.009 36.149z" fill="#f7d4ad"/><g fill="#a4ccff"><path d="m344.965 470.474v41.526h-12.284c-17.692 0-31.01-16.11-27.68-33.481l4.498-23.503c1.293-6.742 3.909-13.029 7.621-18.55 15.891 3.174 27.845 17.195 27.845 34.008z"/><path d="m447.197 512h-11.839v-41.526c0-16.782 11.922-30.793 27.774-33.988 3.764 5.656 6.39 12.088 7.631 18.995l4.177 23.369c3.091 17.278-10.186 33.15-27.743 33.15z"/></g></g><path d="m432.679 306.776c-1.611 1.236-2.809 2.122-2.809 2.122-3.047 1.76-6.355 3.371-9.9 4.794-16.13 6.454-31.898 6.692-39.526 1.348 0 0-7.965-5.943-10.949-9.738-2.983-3.795-12.472-4.757-20.337 3.596-.824.874-1.661 1.448-2.497 1.785v-1.785c0-23.77 19.264-43.034 43.034-43.034 11.885 0 22.647 4.819 30.424 12.609 7.329 7.317 12.023 17.255 12.56 28.303z" fill="#6e4848"/></g><g><path d="m202.971 179.888h-48.189c-4.283 0-7.755-3.472-7.755-7.755s3.472-7.755 7.755-7.755h48.189c4.283 0 7.755 3.472 7.755 7.755s-3.472 7.755-7.755 7.755z" fill="#e2a876"/></g><path d="m114.279 442.471 10.137-10.137c3.029-3.03 3.029-7.939 0-10.968-3.028-3.027-7.939-3.027-10.967 0l-10.137 10.137-10.137-10.137c-3.028-3.027-7.938-3.027-10.967 0-3.029 3.029-3.029 7.939 0 10.968l10.137 10.137-10.137 10.137c-3.029 3.029-3.029 7.939 0 10.968 1.514 1.514 3.499 2.271 5.484 2.271s3.969-.757 5.484-2.271l10.137-10.137 10.137 10.137c1.514 1.514 3.499 2.271 5.484 2.271 1.984 0 3.969-.757 5.484-2.271 3.029-3.029 3.029-7.939 0-10.968z" fill="#ff6b61"/><g><path d="m276.083 434.225h-121.301c-4.283 0-7.755-3.472-7.755-7.755s3.472-7.755 7.755-7.755h121.301c4.283 0 7.755 3.472 7.755 7.755 0 4.284-3.472 7.755-7.755 7.755z" fill="#e2a876"/></g><g><path d="m202.971 466.49h-48.189c-4.283 0-7.755-3.472-7.755-7.755s3.472-7.755 7.755-7.755h48.189c4.283 0 7.755 3.472 7.755 7.755 0 4.284-3.472 7.755-7.755 7.755z" fill="#e2a876"/></g><g><path d="m346.659 246.898h-191.877c-4.283 0-7.755-3.472-7.755-7.755s3.472-7.755 7.755-7.755h191.877c4.283 0 7.755 3.472 7.755 7.755s-3.472 7.755-7.755 7.755z" fill="#e2a876"/></g><g><path d="m253.747 279.163h-98.965c-4.283 0-7.755-3.472-7.755-7.755s3.472-7.755 7.755-7.755h98.965c4.283 0 7.755 3.472 7.755 7.755 0 4.284-3.472 7.755-7.755 7.755z" fill="#e2a876"/></g><g><path d="m96.029 366.831c-1.985 0-3.969-.757-5.484-2.271l-8.339-8.339c-3.028-3.028-3.029-7.939 0-10.967 3.028-3.029 7.939-3.028 10.967-.001l2.889 2.89 17.42-17.203c3.048-3.01 7.958-2.979 10.967.068 3.01 3.047 2.979 7.958-.069 10.967l-22.903 22.618c-1.509 1.493-3.479 2.238-5.448 2.238z" fill="#95d5a4"/></g><g><path d="m307.824 338.951h-153.042c-4.283 0-7.755-3.472-7.755-7.755s3.472-7.755 7.755-7.755h153.042c4.283 0 7.755 3.472 7.755 7.755s-3.472 7.755-7.755 7.755z" fill="#e2a876"/></g><g><path d="m253.747 371.217h-98.965c-4.283 0-7.755-3.472-7.755-7.755s3.472-7.755 7.755-7.755h98.965c4.283 0 7.755 3.472 7.755 7.755 0 4.284-3.472 7.755-7.755 7.755z" fill="#e2a876"/></g><circle cx="103.311" cy="63.858" fill="#ff8b59" r="19.066"/></g></svg>