<svg xmlns="http://www.w3.org/2000/svg" viewBox="0 0 31.42 31.42"><defs><style>.cls-1{fill:#fff;}.cls-2{fill:#8d1f33;}.cls-3{fill:#fafafa;stroke:#fff;stroke-miterlimit:10;stroke-width:2px;}</style></defs><title>Recurso 1</title><g id="Capa_2" data-name="Capa 2"><g id="Capa_1-2" data-name="Capa 1"><circle class="cls-1" cx="15.71" cy="15.71" r="15.71"/><g id="WEB_VIEW" data-name="WEB VIEW"><path class="cls-2" d="M15.71,2.16h0A13.55,13.55,0,0,1,29.26,15.71h0A13.55,13.55,0,0,1,15.71,29.26h0A13.55,13.55,0,0,1,2.16,15.71h0A13.55,13.55,0,0,1,15.71,2.16Z"/><polygon class="cls-3" points="15.4 21.77 16.01 21.77 16.01 16.01 21.77 16.01 21.77 15.4 15.71 15.4 15.4 15.71 15.4 21.77"/><polygon class="cls-3" points="16.01 9.65 15.4 9.65 15.4 15.4 9.65 15.4 9.65 16.01 15.71 16.01 16.01 15.71 16.01 9.65"/></g></g></g></svg>
