<svg xmlns="http://www.w3.org/2000/svg" width="2444.875" height="817.242" viewBox="0 0 2444.875 817.242">
  <g id="Grupo_201" data-name="Grupo 201" transform="translate(-136 -198.8)">
    <path id="Trazado_31" data-name="Trazado 31" d="M2503.375,621.5l-1132.437,29L238.5,621.5v63.2l1132.438-29,1132.437,29Z" transform="translate(0 331.342)" fill="#d3d0ca"/>
    <path id="Trazado_32" data-name="Trazado 32" d="M2580.375,317.574V286.149c-2.161,0-4.322.173-6.7.173-57.045,0-101.126-43.684-101.558-87.022H246.7c-.432,43.338-45.377,87.022-102.638,87.022-2.377,0-5.4,0-7.563-.173v31.425c12.965,4.662,21.608,14.849,21.608,26.763s-8.643,22.1-21.608,26.763v29.353c12.965,4.662,21.608,14.849,21.608,26.763s-8.643,22.1-21.608,26.763V483.33c12.965,4.662,21.608,14.849,21.608,26.763s-8.643,22.1-21.608,26.763v29.353c12.965,4.662,21.608,14.849,21.608,26.763s-8.643,22.1-21.608,26.763v29.353c12.965,4.662,21.608,14.849,21.608,26.763s-8.643,22.1-21.608,26.763v29.353c12.965,4.662,21.608,14.849,21.608,26.763s-8.643,22.1-21.608,26.763v29.353c12.965,4.662,21.608,14.849,21.608,26.763s-8.643,22.1-21.608,26.763v31.425c2.161,0,5.186-.173,7.563-.173,57.045,0,102.206,43.684,102.638,87.022H2472.119c.432-43.338,44.512-87.022,101.558-87.022,2.377,0,4.538,0,6.7.173V868.368c-12.965-4.662-21.608-14.849-21.608-26.763s8.643-22.1,21.608-26.763V785.49c-12.965-4.662-21.608-14.849-21.608-26.763s8.643-22.1,21.608-26.763V702.612c-12.965-4.662-21.608-14.849-21.608-26.763s8.643-22.1,21.608-26.763V619.734c-12.965-4.662-21.608-14.849-21.608-26.763s8.643-22.1,21.608-26.763V536.856c-12.965-4.662-21.608-14.849-21.608-26.763s8.643-22.1,21.608-26.763V453.978c-12.965-4.662-21.608-14.849-21.608-26.763s8.643-22.1,21.608-26.763V371.1c-12.965-4.662-21.608-14.849-21.608-26.763S2567.41,322.236,2580.375,317.574Z" transform="translate(0 0)" fill="#d63d3d" stroke="#201c1c" stroke-width="1"/>
    <g id="Grupo_59" data-name="Grupo 59" transform="translate(158.6 210.3)">
      <path id="Trazado_33" data-name="Trazado 33" d="M2456.878,975.642H265.081v-1.763c-.441-48.5-51.587-82.354-97-82.354-1.543,0-3.307,0-5.071.176a9.312,9.312,0,0,0-2.2.176h-2.2V294.064h2.2a10.272,10.272,0,0,1,2.2.176c1.764,0,3.527.176,5.071.176,45.635,0,96.561-33.858,97-82.354V210.3h2191.8v1.763c.441,38.973,39.9,82.354,95.9,82.354,1.984,0,5.291-.176,5.732-.176l.441,1.763h2.425v594.11h-2.2l-.441,1.763c-.441,0-3.747-.176-5.732-.176-56,0-95.679,43.381-95.9,82.354ZM269.491,972.115h2183.2c.662-20.633,11.244-41.441,29.1-57.312A106.5,106.5,0,0,1,2553,888h3.968V297.944H2553c-26.676,0-52.028-9.523-71.208-26.8-17.857-15.871-28.219-36.68-29.1-57.313H269.491c-1.543,44.968-48.5,84.117-101.411,84.117a48.707,48.707,0,0,1-5.071-.176V888.174c1.764,0,3.527-.176,5.071-.176C220.99,888,267.727,927.147,269.491,972.115Z" transform="translate(-158.6 -210.3)" fill="#fff"/>
    </g>
    <g id="Grupo_62" data-name="Grupo 62" transform="translate(2429.375 214.3)">
      <g id="Grupo_61" data-name="Grupo 61">
        <g id="Grupo_60" data-name="Grupo 60">
          <path id="Trazado_34" data-name="Trazado 34" d="M985.5,214.3l.1,12h-.2Z" transform="translate(-984.5 -214.3)" fill="#fff"/>
          <path id="Trazado_35" data-name="Trazado 35" d="M985.7,238.3l.1,12h-.6l.1-12Z" transform="translate(-984.5 -214.3)" fill="#fff"/>
          <path id="Trazado_36" data-name="Trazado 36" d="M985.9,262.3l.1,12h-1l.1-12Z" transform="translate(-984.5 -214.3)" fill="#fff"/>
          <path id="Trazado_37" data-name="Trazado 37" d="M986.1,286.3v12h-1.2v-12Z" transform="translate(-984.5 -214.3)" fill="#fff"/>
          <path id="Trazado_38" data-name="Trazado 38" d="M986.2,310.3l.1,12h-1.6l.1-12Z" transform="translate(-984.5 -136.337)" fill="#fff"/>
          <path id="Trazado_39" data-name="Trazado 39" d="M986.3,334.3l.1,12h-1.8l.1-12Z" transform="translate(-984.5 -116.846)" fill="#fff"/>
          <path id="Trazado_40" data-name="Trazado 40" d="M986.4,358.3v12h-1.8v-12Z" transform="translate(-984.5 -97.356)" fill="#fff"/>
          <path id="Trazado_41" data-name="Trazado 41" d="M986.4,382.3v12h-1.8v-12Z" transform="translate(-984.5 -77.865)" fill="#fff"/>
          <path id="Trazado_42" data-name="Trazado 42" d="M986.5,406.3v12h-2v-12Z" transform="translate(-984.5 -58.374)" fill="#fff"/>
          <path id="Trazado_43" data-name="Trazado 43" d="M986.5,430.3v12h-2v-12Z" transform="translate(-984.5 -38.884)" fill="#fff"/>
          <path id="Trazado_44" data-name="Trazado 44" d="M986.5,454.3l-.1,12h-1.8l-.1-12Z" transform="translate(-984.5 -19.393)" fill="#fff"/>
          <path id="Trazado_45" data-name="Trazado 45" d="M986.4,478.3v12h-1.8v-12Z" transform="translate(-984.5 0.098)" fill="#fff"/>
          <path id="Trazado_46" data-name="Trazado 46" d="M986.4,502.3v12h-1.8v-12Z" transform="translate(-984.5 19.589)" fill="#fff"/>
          <path id="Trazado_47" data-name="Trazado 47" d="M986.3,526.3v12h-1.6v-12Z" transform="translate(-984.5 39.079)" fill="#fff"/>
          <path id="Trazado_48" data-name="Trazado 48" d="M986.2,550.3l-.1,12h-1.2l-.1-12Z" transform="translate(-984.5 91.507)" fill="#fff"/>
          <path id="Trazado_49" data-name="Trazado 49" d="M986.1,574.3l-.1,12h-1l-.1-12Z" transform="translate(-984.5 117.042)" fill="#fff"/>
          <path id="Trazado_50" data-name="Trazado 50" d="M985.9,598.3l-.1,12h-.6l-.1-12Z" transform="translate(-984.5 117.042)" fill="#fff"/>
          <path id="Trazado_51" data-name="Trazado 51" d="M985.7,622.3l-.1,12h-.2l-.1-12Z" transform="translate(-984.5 117.042)" fill="#fff"/>
        </g>
      </g>
    </g>
    <g id="Grupo_113" data-name="Grupo 113" transform="translate(2458.06 385.354)">
      <g id="Grupo_63" data-name="Grupo 63" transform="translate(0 21.1)">
        <path id="Trazado_52" data-name="Trazado 52" d="M1122.907,284.5h-45.661c-.054-.6-.108-6.5,0-7.7h45.661C1122.907,279.5,1122.907,282,1122.907,284.5Z" transform="translate(-1077.185 -276.8)" fill="#fff" fill-rule="evenodd"/>
      </g>
      <g id="Grupo_64" data-name="Grupo 64" transform="translate(0 392.446)">
        <path id="Trazado_53" data-name="Trazado 53" d="M1122.907,582.5h-45.661c-.054-.6-.108-6.5,0-7.7h45.661C1122.907,577.5,1122.907,580,1122.907,582.5Z" transform="translate(-1077.185 -574.8)" fill="#fff" fill-rule="evenodd"/>
      </g>
      <g id="Grupo_65" data-name="Grupo 65" transform="translate(0.115 34.4)">
        <path id="Trazado_54" data-name="Trazado 54" d="M1122.907,295.9H1077.3v-5.8h45.607Z" transform="translate(-1077.3 -290.1)" fill="#fff" fill-rule="evenodd"/>
      </g>
      <g id="Grupo_66" data-name="Grupo 66" transform="translate(0.115 402.146)">
        <path id="Trazado_55" data-name="Trazado 55" d="M1122.907,590.3H1077.3v-5.8h45.554C1122.907,586.4,1122.907,588.3,1122.907,590.3Z" transform="translate(-1077.3 -584.5)" fill="#fff" fill-rule="evenodd"/>
      </g>
      <g id="Grupo_67" data-name="Grupo 67" transform="translate(0.115 263.109)">
        <path id="Trazado_56" data-name="Trazado 56" d="M1122.907,477.5H1077.3v-5.8h45.607Z" transform="translate(-1077.3 -471.7)" fill="#fff" fill-rule="evenodd"/>
      </g>
      <g id="Grupo_68" data-name="Grupo 68" transform="translate(0.115 298.069)">
        <path id="Trazado_57" data-name="Trazado 57" d="M1122.907,506.2H1077.3v-5.8h45.607Z" transform="translate(-1077.3 -500.4)" fill="#fff" fill-rule="evenodd"/>
      </g>
      <g id="Grupo_69" data-name="Grupo 69" transform="translate(0.115 195.627)">
        <path id="Trazado_58" data-name="Trazado 58" d="M1122.907,422.1H1077.3v-5.8h45.607Z" transform="translate(-1077.3 -416.3)" fill="#fff" fill-rule="evenodd"/>
      </g>
      <g id="Grupo_70" data-name="Grupo 70" transform="translate(0.015 11.5)">
        <path id="Trazado_59" data-name="Trazado 59" d="M1122.907,272.9H1077.2v-5.7h45.654C1122.907,269.1,1122.907,271,1122.907,272.9Z" transform="translate(-1077.2 -267.2)" fill="#fff" fill-rule="evenodd"/>
      </g>
      <g id="Grupo_71" data-name="Grupo 71" transform="translate(0.015 118.758)">
        <path id="Trazado_60" data-name="Trazado 60" d="M1122.907,358.9H1077.2v-5.7h45.654C1122.907,355.2,1122.907,357,1122.907,358.9Z" transform="translate(-1077.2 -353.2)" fill="#fff" fill-rule="evenodd"/>
      </g>
      <g id="Grupo_72" data-name="Grupo 72" transform="translate(0.015 186.359)">
        <path id="Trazado_61" data-name="Trazado 61" d="M1122.907,414.4H1077.2v-5.7h45.654C1122.907,410.6,1122.907,412.5,1122.907,414.4Z" transform="translate(-1077.2 -408.7)" fill="#fff" fill-rule="evenodd"/>
      </g>
      <g id="Grupo_73" data-name="Grupo 73" transform="translate(0.015)">
        <path id="Trazado_62" data-name="Trazado 62" d="M1122.907,259.5c-.108,0-.269.1-.376.1H1077.2v-3.9h45.654C1122.907,257,1122.907,258.2,1122.907,259.5Z" transform="translate(-1077.2 -255.7)" fill="#fff" fill-rule="evenodd"/>
      </g>
      <g id="Grupo_74" data-name="Grupo 74" transform="translate(0.115 360.146)">
        <path id="Trazado_63" data-name="Trazado 63" d="M1122.907,546.3H1077.3v-3.8h45.607Z" transform="translate(-1077.3 -542.5)" fill="#fff" fill-rule="evenodd"/>
      </g>
      <g id="Grupo_75" data-name="Grupo 75" transform="translate(0.115 49.8)">
        <path id="Trazado_64" data-name="Trazado 64" d="M1122.907,309.3H1077.3v-3.8h45.607Z" transform="translate(-1077.3 -305.5)" fill="#fff" fill-rule="evenodd"/>
      </g>
      <g id="Grupo_76" data-name="Grupo 76" transform="translate(0.115 244.335)">
        <path id="Trazado_65" data-name="Trazado 65" d="M1122.907,460.3H1077.3v-3.8h45.607Z" transform="translate(-1077.3 -456.5)" fill="#fff" fill-rule="evenodd"/>
      </g>
      <g id="Grupo_77" data-name="Grupo 77" transform="translate(0.115 314.058)">
        <path id="Trazado_66" data-name="Trazado 66" d="M1122.907,517.6H1077.3v-3.8h45.607Z" transform="translate(-1077.3 -513.8)" fill="#fff" fill-rule="evenodd"/>
      </g>
      <g id="Grupo_78" data-name="Grupo 78" transform="translate(0.115 162.931)">
        <path id="Trazado_67" data-name="Trazado 67" d="M1122.907,393.4H1077.3v-3.8h45.607Z" transform="translate(-1077.3 -389.6)" fill="#fff" fill-rule="evenodd"/>
      </g>
      <g id="Grupo_79" data-name="Grupo 79" transform="translate(0.115 211.725)">
        <path id="Trazado_68" data-name="Trazado 68" d="M1122.907,433.5H1077.3v-3.8h45.607Z" transform="translate(-1077.3 -429.7)" fill="#fff" fill-rule="evenodd"/>
      </g>
      <g id="Grupo_80" data-name="Grupo 80" transform="translate(0 367.746)">
        <path id="Trazado_69" data-name="Trazado 69" d="M1122.907,553.9h-45.661a29.671,29.671,0,0,1,0-3.8h45.661C1122.907,551.4,1122.907,552.6,1122.907,553.9Z" transform="translate(-1077.185 -550.1)" fill="#fff" fill-rule="evenodd"/>
      </g>
      <g id="Grupo_81" data-name="Grupo 81" transform="translate(0 128.008)">
        <path id="Trazado_70" data-name="Trazado 70" d="M1122.907,364.7h-45.661a29.671,29.671,0,0,1,0-3.8h45.661C1122.907,362.3,1122.907,363.5,1122.907,364.7Z" transform="translate(-1077.185 -360.9)" fill="#fff" fill-rule="evenodd"/>
      </g>
      <g id="Grupo_82" data-name="Grupo 82" transform="translate(0 42.1)">
        <path id="Trazado_71" data-name="Trazado 71" d="M1122.907,301.6h-45.661a29.612,29.612,0,0,1,0-3.8h45.661C1122.907,299.1,1122.907,300.3,1122.907,301.6Z" transform="translate(-1077.185 -297.8)" fill="#fff" fill-rule="evenodd"/>
      </g>
      <g id="Grupo_83" data-name="Grupo 83" transform="translate(0 55.4)">
        <path id="Trazado_72" data-name="Trazado 72" d="M1122.907,314.9h-45.661a29.567,29.567,0,0,1,0-3.8h45.661C1122.907,312.5,1122.907,313.7,1122.907,314.9Z" transform="translate(-1077.185 -311.1)" fill="#fff" fill-rule="evenodd"/>
      </g>
      <g id="Grupo_84" data-name="Grupo 84" transform="translate(0 63.2)">
        <path id="Trazado_73" data-name="Trazado 73" d="M1122.907,322.7h-45.661a29.567,29.567,0,0,1,0-3.8h45.661C1122.907,320.2,1122.907,321.5,1122.907,322.7Z" transform="translate(-1077.185 -318.9)" fill="#fff" fill-rule="evenodd"/>
      </g>
      <g id="Grupo_85" data-name="Grupo 85" transform="translate(0 274.512)">
        <path id="Trazado_74" data-name="Trazado 74" d="M1122.907,485.1h-45.661a29.567,29.567,0,0,1,0-3.8h45.661C1122.907,482.6,1122.907,483.8,1122.907,485.1Z" transform="translate(-1077.185 -481.3)" fill="#fff" fill-rule="evenodd"/>
      </g>
      <g id="Grupo_86" data-name="Grupo 86" transform="translate(0 102.334)">
        <path id="Trazado_75" data-name="Trazado 75" d="M1122.907,343.6h-45.661a29.671,29.671,0,0,1,0-3.8h45.661C1122.907,341.2,1122.907,342.4,1122.907,343.6Z" transform="translate(-1077.185 -339.8)" fill="#fff" fill-rule="evenodd"/>
      </g>
      <g id="Grupo_87" data-name="Grupo 87" transform="translate(0 288.384)">
        <path id="Trazado_76" data-name="Trazado 76" d="M1122.907,496.5h-45.661a29.671,29.671,0,0,1,0-3.8h45.661C1122.907,494,1122.907,495.3,1122.907,496.5Z" transform="translate(-1077.185 -492.7)" fill="#fff" fill-rule="evenodd"/>
      </g>
      <g id="Grupo_88" data-name="Grupo 88" transform="translate(0 153.561)">
        <path id="Trazado_77" data-name="Trazado 77" d="M1122.907,385.7h-45.661a29.567,29.567,0,0,1,0-3.8h45.661C1122.907,383.2,1122.907,384.4,1122.907,385.7Z" transform="translate(-1077.185 -381.9)" fill="#fff" fill-rule="evenodd"/>
      </g>
      <g id="Grupo_89" data-name="Grupo 89" transform="translate(0 169.745)">
        <path id="Trazado_78" data-name="Trazado 78" d="M1122.907,399h-45.661a29.567,29.567,0,0,1,0-3.8h45.661C1122.907,396.6,1122.907,397.8,1122.907,399Z" transform="translate(-1077.185 -395.2)" fill="#fff" fill-rule="evenodd"/>
      </g>
      <g id="Grupo_90" data-name="Grupo 90" transform="translate(0 179.236)">
        <path id="Trazado_79" data-name="Trazado 79" d="M1122.907,406.8h-45.661a29.567,29.567,0,0,1,0-3.8h45.661C1122.907,404.3,1122.907,405.5,1122.907,406.8Z" transform="translate(-1077.185 -403)" fill="#fff" fill-rule="evenodd"/>
      </g>
      <g id="Grupo_91" data-name="Grupo 91" transform="translate(0 204.667)">
        <path id="Trazado_80" data-name="Trazado 80" d="M1122.907,427.7h-45.661a29.567,29.567,0,0,1,0-3.8h45.661C1122.907,425.3,1122.907,426.5,1122.907,427.7Z" transform="translate(-1077.185 -423.9)" fill="#fff" fill-rule="evenodd"/>
      </g>
      <g id="Grupo_92" data-name="Grupo 92" transform="translate(0 220.972)">
        <path id="Trazado_81" data-name="Trazado 81" d="M1122.907,441.1h-45.661a29.671,29.671,0,0,1,0-3.8h45.661C1122.907,438.6,1122.907,439.9,1122.907,441.1Z" transform="translate(-1077.185 -437.3)" fill="#fff" fill-rule="evenodd"/>
      </g>
      <g id="Grupo_93" data-name="Grupo 93" transform="translate(0.115 5.8)">
        <path id="Trazado_82" data-name="Trazado 82" d="M1122.907,263.4H1077.3v-1.9h45.607Z" transform="translate(-1077.3 -261.5)" fill="#fff" fill-rule="evenodd"/>
      </g>
      <g id="Grupo_94" data-name="Grupo 94" transform="translate(0.115 375.446)">
        <path id="Trazado_83" data-name="Trazado 83" d="M1122.907,559.7H1077.3v-1.9h45.554C1122.907,558.4,1122.907,559,1122.907,559.7Z" transform="translate(-1077.3 -557.8)" fill="#fff" fill-rule="evenodd"/>
      </g>
      <g id="Grupo_95" data-name="Grupo 95" transform="translate(0.115 146.48)">
        <path id="Trazado_84" data-name="Trazado 84" d="M1122.907,378.1H1077.3v-1.9h45.607Z" transform="translate(-1077.3 -376.2)" fill="#fff" fill-rule="evenodd"/>
      </g>
      <g id="Grupo_96" data-name="Grupo 96" transform="translate(0.115 92.993)">
        <path id="Trazado_85" data-name="Trazado 85" d="M1122.907,334.1H1077.3v-1.9h45.607Z" transform="translate(-1077.3 -332.2)" fill="#fff" fill-rule="evenodd"/>
      </g>
      <g id="Grupo_97" data-name="Grupo 97" transform="translate(0.115 114.023)">
        <path id="Trazado_86" data-name="Trazado 86" d="M1122.907,351.4H1077.3v-1.9h45.607Z" transform="translate(-1077.3 -349.5)" fill="#fff" fill-rule="evenodd"/>
      </g>
      <g id="Grupo_98" data-name="Grupo 98" transform="translate(0.115 413.546)">
        <path id="Trazado_87" data-name="Trazado 87" d="M1122.907,597.8H1077.3v-1.9h45.607Z" transform="translate(-1077.3 -595.9)" fill="#fff" fill-rule="evenodd"/>
      </g>
      <g id="Grupo_99" data-name="Grupo 99" transform="translate(0.115 236.92)">
        <path id="Trazado_88" data-name="Trazado 88" d="M1122.907,452.5H1077.3v-1.9h45.607C1122.907,451.4,1122.907,451.9,1122.907,452.5Z" transform="translate(-1077.3 -450.6)" fill="#fff" fill-rule="evenodd"/>
      </g>
      <g id="Grupo_100" data-name="Grupo 100" transform="translate(0.115 255.519)">
        <path id="Trazado_89" data-name="Trazado 89" d="M1122.907,467.8H1077.3v-1.9h45.607C1122.907,466.7,1122.907,467.2,1122.907,467.8Z" transform="translate(-1077.3 -465.9)" fill="#fff" fill-rule="evenodd"/>
      </g>
      <g id="Grupo_101" data-name="Grupo 101" transform="translate(0.115 281.168)">
        <path id="Trazado_90" data-name="Trazado 90" d="M1122.907,488.9H1077.3V487h45.607C1122.907,487.8,1122.907,488.4,1122.907,488.9Z" transform="translate(-1077.3 -487)" fill="#fff" fill-rule="evenodd"/>
      </g>
      <g id="Grupo_102" data-name="Grupo 102" transform="translate(0.115 306.695)">
        <path id="Trazado_91" data-name="Trazado 91" d="M1122.907,509.9H1077.3V508h45.607C1122.907,508.7,1122.907,509.3,1122.907,509.9Z" transform="translate(-1077.3 -508)" fill="#fff" fill-rule="evenodd"/>
      </g>
      <g id="Grupo_103" data-name="Grupo 103" transform="translate(0.115 325.294)">
        <path id="Trazado_92" data-name="Trazado 92" d="M1122.907,525.2H1077.3v-1.9h45.607C1122.907,524,1122.907,524.6,1122.907,525.2Z" transform="translate(-1077.3 -523.3)" fill="#fff" fill-rule="evenodd"/>
      </g>
      <g id="Grupo_104" data-name="Grupo 104" transform="translate(0.115 332.344)">
        <path id="Trazado_93" data-name="Trazado 93" d="M1122.907,531H1077.3v-1.9h45.607C1122.907,529.8,1122.907,530.4,1122.907,531Z" transform="translate(-1077.3 -529.1)" fill="#fff" fill-rule="evenodd"/>
      </g>
      <g id="Grupo_105" data-name="Grupo 105" transform="translate(0.115 352.346)">
        <path id="Trazado_94" data-name="Trazado 94" d="M1122.907,536.6H1077.3v-1.9h45.607C1122.907,535.4,1122.907,536,1122.907,536.6Z" transform="translate(-1077.3 -534.7)" fill="#fff" fill-rule="evenodd"/>
      </g>
      <g id="Grupo_106" data-name="Grupo 106" transform="translate(0.115 382.946)">
        <path id="Trazado_95" data-name="Trazado 95" d="M1122.907,567.2H1077.3v-1.9h45.607C1122.907,566.1,1122.907,566.6,1122.907,567.2Z" transform="translate(-1077.3 -565.3)" fill="#fff" fill-rule="evenodd"/>
      </g>
      <g id="Grupo_107" data-name="Grupo 107" transform="translate(0.115 388.746)">
        <path id="Trazado_96" data-name="Trazado 96" d="M1122.907,573H1077.3v-1.9h45.607C1122.907,571.9,1122.907,572.5,1122.907,573Z" transform="translate(-1077.3 -571.1)" fill="#fff" fill-rule="evenodd"/>
      </g>
      <g id="Grupo_108" data-name="Grupo 108" transform="translate(0.115 409.746)">
        <path id="Trazado_97" data-name="Trazado 97" d="M1122.907,594H1077.3v-1.9h45.607C1122.907,592.8,1122.907,593.4,1122.907,594Z" transform="translate(-1077.3 -592.1)" fill="#fff" fill-rule="evenodd"/>
      </g>
      <g id="Grupo_109" data-name="Grupo 109" transform="translate(0.115 30.6)">
        <path id="Trazado_98" data-name="Trazado 98" d="M1122.907,288.2H1077.3v-1.9h45.607C1122.907,287,1122.907,287.6,1122.907,288.2Z" transform="translate(-1077.3 -286.3)" fill="#fff" fill-rule="evenodd"/>
      </g>
      <g id="Grupo_110" data-name="Grupo 110" transform="translate(0.115 85.943)">
        <path id="Trazado_99" data-name="Trazado 99" d="M1122.907,328.3H1077.3v-1.9h45.607C1122.907,327.1,1122.907,327.7,1122.907,328.3Z" transform="translate(-1077.3 -326.4)" fill="#fff" fill-rule="evenodd"/>
      </g>
      <g id="Grupo_111" data-name="Grupo 111" transform="translate(0.115 139.429)">
        <path id="Trazado_100" data-name="Trazado 100" d="M1122.907,372.3H1077.3v-1.9h45.607C1122.907,371.1,1122.907,371.7,1122.907,372.3Z" transform="translate(-1077.3 -370.4)" fill="#fff" fill-rule="evenodd"/>
      </g>
      <g id="Grupo_112" data-name="Grupo 112" transform="translate(0.115 230.113)">
        <path id="Trazado_101" data-name="Trazado 101" d="M1122.907,446.9H1077.3V445h45.607C1122.907,445.7,1122.907,446.3,1122.907,446.9Z" transform="translate(-1077.3 -445)" fill="#fff" fill-rule="evenodd"/>
      </g>
    </g>
  </g>
</svg>
