<?xml version="1.0" encoding="iso-8859-1"?>
<!-- Generator: Adobe Illustrator 19.0.0, SVG Export Plug-In . SVG Version: 6.00 Build 0)  -->
<svg version="1.1" id="Layer_1" xmlns="http://www.w3.org/2000/svg" xmlns:xlink="http://www.w3.org/1999/xlink" x="0px" y="0px"
	 viewBox="0 0 491.53 491.53" style="enable-background:new 0 0 491.53 491.53;" xml:space="preserve">
<rect y="122.885" style="fill:#E1E6E9;" width="491.52" height="122.88"/>
<rect y="245.765" style="fill:#FFFFFF;" width="491.52" height="122.88"/>
<rect y="368.645" style="fill:#EBF0F3;" width="491.52" height="122.88"/>
<rect y="0.005" style="fill:#64798A;" width="355.379" height="122.88"/>
<rect x="355.379" y="0.005" style="fill:#27A2DB;" width="136.151" height="122.88"/>
<path style="fill:#FFFFFF;" d="M462.18,93.856l-26.049-26.049c8.06-11.124,7.172-26.76-2.838-36.779
	c-11.11-11.092-29.167-11.074-40.259,0c-11.101,11.101-11.101,29.158,0,40.259c5.551,5.542,12.838,8.317,20.125,8.317
	c5.874,0,11.693-1.887,16.655-5.479l26.049,26.049L462.18,93.856z M399.352,64.969c-7.619-7.619-7.619-20.003,0-27.622
	c3.805-3.805,8.806-5.708,13.806-5.708c5.01,0,10.011,1.903,13.815,5.708c7.611,7.619,7.611,20.011,0,27.622
	C419.373,72.578,406.971,72.587,399.352,64.969z"/>
<circle style="fill:#FCD462;" cx="216.32" cy="61.445" r="26.516"/>
<g>
	<circle style="fill:#44C4A1;" cx="294.451" cy="61.445" r="26.516"/>
	<path style="fill:#44C4A1;" d="M103.505,225.245H28.577c-1.909,0-3.457-1.548-3.457-3.456v-74.928c0-1.909,1.548-3.457,3.457-3.457
		h74.929c1.909,0,3.457,1.548,3.457,3.457v74.928C106.962,223.698,105.414,225.245,103.505,225.245z"/>
</g>
<rect x="140.012" y="153.088" style="fill:#E56353;" width="150.564" height="17.874"/>
<rect x="140.012" y="197.688" style="fill:#D5D6DB;" width="322.166" height="17.874"/>
<path style="fill:#27A2DB;" d="M103.505,348.125H28.577c-1.909,0-3.457-1.548-3.457-3.457V269.74c0-1.909,1.548-3.457,3.457-3.457
	h74.929c1.909,0,3.457,1.548,3.457,3.457v74.929C106.962,346.578,105.414,348.125,103.505,348.125z"/>
<rect x="140.012" y="275.968" style="fill:#64798A;" width="150.564" height="17.874"/>
<rect x="140.012" y="320.568" style="fill:#D5D6DB;" width="322.166" height="17.874"/>
<path style="fill:#FCD462;" d="M103.505,471.005H28.577c-1.909,0-3.457-1.548-3.457-3.457v-74.928c0-1.909,1.548-3.457,3.457-3.457
	h74.929c1.909,0,3.457,1.548,3.457,3.457v74.928C106.962,469.458,105.414,471.005,103.505,471.005z"/>
<rect x="140.012" y="398.848" style="fill:#27A2DB;" width="150.564" height="17.874"/>
<rect x="140.012" y="443.448" style="fill:#D5D6DB;" width="322.166" height="17.874"/>
<g>
</g>
<g>
</g>
<g>
</g>
<g>
</g>
<g>
</g>
<g>
</g>
<g>
</g>
<g>
</g>
<g>
</g>
<g>
</g>
<g>
</g>
<g>
</g>
<g>
</g>
<g>
</g>
<g>
</g>
</svg>
